# xmcd CD database file
#
# Track frame offsets:
#	150
#	16754
#	34161
#	49899
#	65398
#	90597
#	112927
#	128866
#	151600
#	169806
#	187808
#	204261
#	222195
#	242494
#	263343
#
# Disc length: 3705 seconds
#
# Revision: 0
# Processed by: cddbd v1.5.2PL0 Copyright (c) Steve Scherf et al.
# Submitted via: CDex 1.51
#
DISCID=b20e770f
DTITLE=Gorilla Voltage - Ape-X
DYEAR=2017
DGENRE=Horrorcore
TTITLE0=Gorilla Voltage - Gorilla Voltage
TTITLE1=Gorilla Voltage - Stars Collide
TTITLE2=Gorilla Voltage - FTWFE
TTITLE3=Gorilla Voltage - Rocks For Brains (feat. Kung Fu Vampire)
TTITLE4=Gorilla Voltage - Ninja Star (feat. Twiztid)
TTITLE5=Gorilla Voltage - Cold Soul (feat. G Mo Skee, Fury, Bizarre)
TTITLE6=Gorilla Voltage - Die Hard (feat. Slaine)
TTITLE7=Gorilla Voltage - Lit (feat. Dirtbag Dan, Kung Fu Vampire)
TTITLE8=Gorilla Voltage - Level Up
TTITLE9=Gorilla Voltage - Grime
TTITLE10=Gorilla Voltage - Paint The Town Red
TTITLE11=Gorilla Voltage - Monkey On My Back (feat. Blaze Ya Dead Homie)
TTITLE12=Gorilla Voltage - You Know What Really Grinds My Gears?
TTITLE13=Gorilla Voltage - Obsessed (feat. Madchild, Joe Cutter)
TTITLE14=Gorilla Voltage - Time
EXTD=YEAR: 2017
EXTT0=
EXTT1=
EXTT2=
EXTT3=
EXTT4=
EXTT5=
EXTT6=
EXTT7=
EXTT8=
EXTT9=
EXTT10=
EXTT11=
EXTT12=
EXTT13=
EXTT14=
PLAYORDER=
